<svg width="72" height="72" viewBox="0 0 72 72" fill="none" xmlns="http://www.w3.org/2000/svg">
<circle cx="36" cy="36" r="36" fill="#412E27"/>
<path d="M23.4343 31H15.7243C15.1402 30.997 14.5729 31.2166 14.1172 31.6222C13.6615 32.0277 13.345 32.5947 13.2206 33.2282C11.6459 41.0187 11.5942 49.0934 13.0692 56.9079L13.2241 57.7322C13.346 58.372 13.6618 58.9462 14.1188 59.3589C14.5759 59.7716 15.1465 59.9978 15.7357 60H23.4348C24.1149 59.9991 24.767 59.6988 25.2478 59.1649C25.7287 58.6311 25.9992 57.9073 26 57.1523V33.8477C25.9992 33.0926 25.7287 32.3687 25.2477 31.8348C24.7666 31.301 24.1145 31.0007 23.4343 31ZM22.6945 56.3311H16.3367L16.3048 56.1606C14.9667 49.0731 14.9723 41.7539 16.3211 34.6689H22.6945V56.3311Z" fill="#F2F2F2"/>
<path d="M59.8465 39.6682L57.6468 32.9963C57.4732 32.4748 57.1646 32.0255 56.7616 31.7078C56.3586 31.3902 55.8804 31.2191 55.3901 31.2173H43.6689V27.8721L44.6221 25.4709C45.0992 24.2691 45.3623 22.9718 45.396 21.6538C45.4298 20.3358 45.2336 19.0232 44.8187 17.7919C44.4039 16.5607 43.7787 15.4351 42.9792 14.4802C42.1797 13.5254 41.2218 12.7602 40.1608 12.2289C39.5807 11.9415 38.9247 11.9241 38.3334 12.1803C37.7421 12.4364 37.2625 12.9459 36.9975 13.5994L29 33.5126V36.3514H31.3631L39.5562 15.9504C40.7128 16.7613 41.5701 18.0236 41.968 19.5012C42.3659 20.9788 42.2771 22.5706 41.7182 23.9792L40.6237 26.7361L40.4823 27.4819V33.0296L42.0756 34.8418H54.8517L56.8134 40.7914V41.8416L50.0432 55.3755H37.6014L29 49.6364V53.8385L36.1705 58.6229C36.5404 58.8697 36.9615 58.9999 37.3903 59H50.4951C50.9206 58.9995 51.3385 58.871 51.7063 58.6277C52.0742 58.3844 52.3789 58.0348 52.5897 57.6143L59.6848 43.4304C59.8912 43.0171 59.9998 42.5501 60 42.0748V40.6309C60.0001 40.3021 59.9482 39.976 59.8465 39.6682Z" fill="#F2F2F2"/>
</svg>
