<svg width="72" height="72" viewBox="0 0 72 72" fill="none" xmlns="http://www.w3.org/2000/svg">
<circle cx="36" cy="36" r="36" fill="#412E27"/>
<path d="M36.4578 32.75C30.8831 31.275 29.0904 29.75 29.0904 27.375C29.0904 24.65 31.5707 22.75 35.721 22.75C40.0923 22.75 41.7132 24.875 41.8605 28H47.2878C47.1159 23.7 44.5373 19.75 39.4047 18.475V13H32.0373V18.4C27.2731 19.45 23.442 22.6 23.442 27.425C23.442 33.2 28.1326 36.075 34.9843 37.75C41.1238 39.25 42.3517 41.45 42.3517 43.775C42.3517 45.5 41.1483 48.25 35.721 48.25C30.6621 48.25 28.6729 45.95 28.4028 43H23C23.2947 48.475 27.3222 51.55 32.0373 52.575V58H39.4047V52.625C44.1935 51.7 48 48.875 48 43.75C48 36.65 42.0324 34.225 36.4578 32.75Z" fill="#F2F2F2"/>
</svg>
