<svg width="72" height="72" viewBox="0 0 72 72" fill="none" xmlns="http://www.w3.org/2000/svg">
<circle cx="36" cy="36" r="36" fill="#412E27"/>
<path d="M49.2222 17.5H41.3267C40.5333 14.89 38.4556 13 36 13C33.5444 13 31.4667 14.89 30.6733 17.5H22.7778C20.7 17.5 19 19.525 19 22V53.5C19 55.975 20.7 58 22.7778 58H49.2222C51.3 58 53 55.975 53 53.5V22C53 19.525 51.3 17.5 49.2222 17.5ZM36 17.5C37.0389 17.5 37.8889 18.5125 37.8889 19.75C37.8889 20.9875 37.0389 22 36 22C34.9611 22 34.1111 20.9875 34.1111 19.75C34.1111 18.5125 34.9611 17.5 36 17.5ZM39.7778 49H26.5556V44.5H39.7778V49ZM45.4444 40H26.5556V35.5H45.4444V40ZM45.4444 31H26.5556V26.5H45.4444V31Z" fill="#F2F2F2"/>
</svg>
