<svg width="72" height="72" viewBox="0 0 72 72" fill="none" xmlns="http://www.w3.org/2000/svg">
<circle cx="36" cy="36" r="36" fill="#412E27"/>
<path d="M36 36C35.8816 36.071 35.2247 36.367 34.0291 36.8878C32.8336 37.4086 32.1411 37.7401 31.9517 37.8821C32.8513 39.2315 33.7154 40.3916 34.544 41.3622C34.331 41.8357 34.0232 42.9366 33.6207 44.6648C33.2183 46.393 32.7862 48.3816 32.3246 50.6307C31.8629 52.8797 31.6203 54.0516 31.5966 54.1463C31.5729 54.0753 31.3243 53.9806 30.8509 53.8622C30.3774 53.7438 29.8743 53.5249 29.3416 53.2053C28.8089 52.8857 28.4598 52.4418 28.294 51.8736C27.9152 50.5952 27.5956 48.6776 27.3352 46.1207C27.0748 43.5639 26.8736 41.2853 26.7315 39.2848C26.5895 37.2843 26.4356 36.1776 26.2699 35.9645C26.1042 36.0355 25.7313 36.2249 25.1513 36.5327C24.5713 36.8404 23.9735 37.1127 23.358 37.3494C22.6477 37.6098 21.6771 37.965 20.446 38.4148C19.215 38.8646 18.2443 39.2256 17.5341 39.4979C16.8239 39.7701 16.0367 40.0956 15.1726 40.4744C14.3085 40.8532 13.6101 41.2379 13.0774 41.6286C12.5447 42.0192 12.1364 42.4157 11.8523 42.8182C11.2841 44.3333 11 50.3939 11 61H61C61 58.3485 60.9349 54.892 60.8047 50.6307C60.6745 46.3693 60.4555 43.7652 60.1477 42.8182C59.8636 42.4157 59.4553 42.0192 58.9226 41.6286C58.3899 41.2379 57.6915 40.8532 56.8274 40.4744C55.9633 40.0956 55.1761 39.7701 54.4659 39.4979C53.7557 39.2256 52.785 38.8646 51.554 38.4148C50.3229 37.965 49.3523 37.6098 48.642 37.3494C48.0265 37.1127 47.4287 36.8404 46.8487 36.5327C46.2687 36.2249 45.8958 36.0355 45.7301 35.9645C45.5644 36.1776 45.4283 37.2843 45.3217 39.2848C45.2152 41.2853 45.0495 43.5639 44.8246 46.1207C44.5997 48.6776 44.2978 50.5952 43.919 51.8736C43.7533 52.4418 43.4041 52.8857 42.8714 53.2053C42.3388 53.5249 41.8357 53.7438 41.3622 53.8622C40.8887 53.9806 40.6402 54.0753 40.6165 54.1463C39.1487 46.973 38.0952 42.7116 37.456 41.3622C38.2846 40.3916 39.1487 39.2315 40.0483 37.8821C39.8589 37.7401 39.1664 37.4086 37.9709 36.8878C36.7753 36.367 36.1184 36.071 36 36ZM36 11C39.1487 11 41.8298 12.1068 44.0433 14.3203C46.2569 16.5339 47.3636 19.215 47.3636 22.3636C47.3636 25.5123 46.2569 28.1934 44.0433 30.407C41.8298 32.6205 39.1487 33.7273 36 33.7273C32.8513 33.7273 30.1702 32.6205 27.9567 30.407C25.7431 28.1934 24.6364 25.5123 24.6364 22.3636C24.6364 19.215 25.7431 16.5339 27.9567 14.3203C30.1702 12.1068 32.8513 11 36 11ZM45.6591 22.4347C44.7358 22.6241 43.416 22.5353 41.6996 22.1683C39.9832 21.8014 38.5331 21.3693 37.3494 20.8722C36.5445 20.517 35.7751 20.1087 35.0412 19.647C34.3073 19.1854 33.4669 18.6054 32.5199 17.907C31.5729 17.2086 30.839 16.6937 30.3182 16.3622C30.697 19.1795 29.3712 21.1918 26.3409 22.3991C26.3646 25.0743 27.3175 27.3471 29.1996 29.2173C31.0817 31.0876 33.3485 32.0227 36 32.0227C38.6515 32.0227 40.9183 31.0876 42.8004 29.2173C44.6825 27.3471 45.6354 25.0862 45.6591 22.4347Z" fill="#F2F2F2"/>
</svg>
