<svg width="72" height="72" viewBox="0 0 72 72" fill="none" xmlns="http://www.w3.org/2000/svg">
<circle cx="36" cy="36" r="36" fill="#412E27"/>
<path d="M52.6188 24.9914L48.5281 20.9008C47.6228 20.0034 46.3997 19.5 45.125 19.5H25.6344C24.3625 19.5 23.1336 20.007 22.2313 20.9008L18.1406 24.9914H8V46.9656H13.5C15.0125 46.9656 16.2328 45.7453 16.2414 44.2414H17.0234L24.2938 50.807C26.9492 52.9641 30.6359 53.0156 33.3688 51.1336C34.443 52.0617 35.6031 52.5 36.9008 52.5C38.4648 52.5 39.9344 51.8641 41.0945 50.4375C42.9938 51.1852 45.2367 50.6609 46.5945 48.9938L48.8461 46.218C49.3273 45.625 49.6281 44.9461 49.7828 44.2414H54.7586C54.7672 45.7453 55.9961 46.9656 57.5 46.9656H63V24.9914H52.6188ZM12.125 44.2156C11.3688 44.2156 10.75 43.5969 10.75 42.8406C10.75 42.0844 11.3688 41.4656 12.125 41.4656C12.8812 41.4656 13.5 42.0844 13.5 42.8406C13.5 43.6055 12.8812 44.2156 12.125 44.2156ZM45.6406 43.6227L43.3977 46.3898C43.157 46.682 42.7273 46.7336 42.4266 46.493L40.3727 44.8258L37.7945 47.9625C37.2789 48.5898 36.5055 48.375 36.2477 48.1688L33.0852 45.4617L31.7445 47.1117C30.55 48.5812 28.3758 48.8047 26.9922 47.6789L18.6305 40.1164H16.25V29.1078H19.8508L25.1531 23.8141C25.325 23.7453 25.4711 23.6852 25.643 23.6164H30.5156L27.1898 26.6672C24.6633 28.9789 24.5172 32.8805 26.8117 35.3727C28.0836 36.7648 32.0711 38.9133 35.5344 35.7508L36.2391 35.1063L45.5375 42.6516C45.8297 42.8922 45.8727 43.3305 45.6406 43.6227ZM54.75 40.1164H48.8031C48.6055 39.8758 48.382 39.6523 48.1414 39.4547L39.3156 32.2875L40.3898 31.3078C40.9484 30.7922 40.9914 29.9242 40.4758 29.3656L39.5391 28.3602C39.0234 27.8016 38.1555 27.7672 37.5969 28.2742L32.8531 32.6227C32.0367 33.3703 30.6445 33.4305 29.8797 32.6227C29.0805 31.7719 29.1492 30.4656 29.9828 29.7094L35.6203 24.5445C36.2563 23.9602 37.0812 23.6422 37.9406 23.6422L45.1336 23.625C45.3141 23.625 45.4859 23.6938 45.6063 23.8227L50.9086 29.1164H54.75V40.1164ZM58.875 44.2156C58.1188 44.2156 57.5 43.5969 57.5 42.8406C57.5 42.0844 58.1188 41.4656 58.875 41.4656C59.6312 41.4656 60.25 42.0844 60.25 42.8406C60.25 43.6055 59.6312 44.2156 58.875 44.2156Z" fill="#F2F2F2"/>
</svg>
