<svg width="72" height="72" viewBox="0 0 72 72" fill="none" xmlns="http://www.w3.org/2000/svg">
<circle cx="36" cy="36" r="36" fill="#412E27"/>
<g clip-path="url(#clip0)">
<path d="M13 23.9375C13 22.6943 13.4939 21.502 14.3729 20.6229C15.252 19.7439 16.4443 19.25 17.6875 19.25H45.8125C47.0557 19.25 48.248 19.7439 49.1271 20.6229C50.0061 21.502 50.5 22.6943 50.5 23.9375V28.625H53.6875C54.3898 28.6256 55.083 28.7841 55.7159 29.0886C56.3487 29.3931 56.905 29.8359 57.3438 30.3844L61.9719 36.1656C62.6378 36.9975 63.0004 38.0313 63 39.0969V45.8125C63 47.0557 62.5061 48.248 61.6271 49.1271C60.748 50.0061 59.5557 50.5 58.3125 50.5H56.75C56.75 52.1576 56.0915 53.7473 54.9194 54.9194C53.7473 56.0915 52.1576 56.75 50.5 56.75C48.8424 56.75 47.2527 56.0915 46.0806 54.9194C44.9085 53.7473 44.25 52.1576 44.25 50.5H28.625C28.6268 51.3331 28.462 52.1581 28.1404 52.9266C27.8187 53.6951 27.3467 54.3915 26.752 54.9749C26.1574 55.5583 25.452 56.017 24.6776 56.3239C23.9031 56.6308 23.0751 56.7798 22.2422 56.7621C21.4093 56.7444 20.5883 56.5603 19.8276 56.2208C19.0669 55.8812 18.3817 55.393 17.8123 54.7848C17.243 54.1767 16.801 53.4608 16.5123 52.6794C16.2236 51.8979 16.094 51.0666 16.1312 50.2344C15.2158 49.9122 14.4229 49.3137 13.862 48.5217C13.3011 47.7296 12.9999 46.783 13 45.8125V23.9375ZM17.0438 47.2375C17.6088 46.3125 18.4047 45.5504 19.3534 45.0261C20.3021 44.5019 21.3709 44.2335 22.4548 44.2474C23.5386 44.2612 24.6002 44.5569 25.5352 45.1052C26.4701 45.6536 27.2464 46.4358 27.7875 47.375H45.0875C45.6372 46.4259 46.4259 45.6372 47.375 45.0875V23.9375C47.375 23.5231 47.2104 23.1257 46.9174 22.8326C46.6243 22.5396 46.2269 22.375 45.8125 22.375H17.6875C17.2731 22.375 16.8757 22.5396 16.5826 22.8326C16.2896 23.1257 16.125 23.5231 16.125 23.9375V45.8125C16.1248 46.1133 16.2113 46.4077 16.3743 46.6605C16.5373 46.9132 16.7697 47.1136 17.0438 47.2375ZM50.5 44.25C51.5971 44.25 52.6748 44.5388 53.6249 45.0874C54.575 45.6359 55.364 46.4249 55.9125 47.375H58.3125C58.7269 47.375 59.1243 47.2104 59.4174 46.9174C59.7104 46.6243 59.875 46.2269 59.875 45.8125V39.0938C59.8744 38.7392 59.7531 38.3953 59.5312 38.1187L54.9062 32.3375C54.7601 32.1545 54.5747 32.0067 54.3638 31.905C54.1528 31.8033 53.9217 31.7503 53.6875 31.75H50.5V44.25ZM22.375 47.375C21.5462 47.375 20.7513 47.7042 20.1653 48.2903C19.5792 48.8763 19.25 49.6712 19.25 50.5C19.25 51.3288 19.5792 52.1237 20.1653 52.7097C20.7513 53.2958 21.5462 53.625 22.375 53.625C23.2038 53.625 23.9987 53.2958 24.5847 52.7097C25.1708 52.1237 25.5 51.3288 25.5 50.5C25.5 49.6712 25.1708 48.8763 24.5847 48.2903C23.9987 47.7042 23.2038 47.375 22.375 47.375ZM50.5 47.375C49.6712 47.375 48.8763 47.7042 48.2903 48.2903C47.7042 48.8763 47.375 49.6712 47.375 50.5C47.375 51.3288 47.7042 52.1237 48.2903 52.7097C48.8763 53.2958 49.6712 53.625 50.5 53.625C51.3288 53.625 52.1237 53.2958 52.7097 52.7097C53.2958 52.1237 53.625 51.3288 53.625 50.5C53.625 49.6712 53.2958 48.8763 52.7097 48.2903C52.1237 47.7042 51.3288 47.375 50.5 47.375Z" fill="#F4F4F4"/>
</g>
<defs>
<clipPath id="clip0">
<rect width="50" height="50" fill="white" transform="translate(13 13)"/>
</clipPath>
</defs>
</svg>
