<svg width="63" height="63" viewBox="0 0 63 63" fill="none" xmlns="http://www.w3.org/2000/svg">
<path fill-rule="evenodd" clip-rule="evenodd" d="M48.3079 14.7866C46.1248 12.5892 43.5274 10.8468 40.6661 9.66039C37.8049 8.47398 34.7366 7.86713 31.6391 7.875C18.6506 7.875 8.07713 18.4459 8.07188 31.4396C8.07188 35.5924 9.156 39.6454 11.2166 43.2206L7.875 55.4295L20.3674 52.1509C23.8229 54.0319 27.6943 55.0183 31.6286 55.02H31.6391C44.625 55.02 55.1985 44.4491 55.2038 31.4554C55.2127 28.3591 54.6078 25.2919 53.4242 22.4308C52.2406 19.5697 50.5016 16.9716 48.3079 14.7866V14.7866ZM31.6391 51.0431H31.6313C28.123 51.0435 24.6793 50.0996 21.6615 48.3105L20.9475 47.8852L13.5345 49.8304L15.5111 42.6037L15.0465 41.8635C13.0851 38.7409 12.0467 35.1272 12.0514 31.4396C12.0566 20.6404 20.8425 11.8545 31.647 11.8545C34.2202 11.8488 36.7689 12.3535 39.1457 13.3393C41.5225 14.3252 43.6802 15.7727 45.4939 17.598C47.3173 19.4146 48.7625 21.5746 49.7461 23.9531C50.7297 26.3316 51.2321 28.8815 51.2242 31.4554C51.219 42.2546 42.4331 51.0431 31.6391 51.0431ZM42.3832 36.372C41.7926 36.0754 38.8999 34.6526 38.3591 34.4557C37.821 34.2589 37.4299 34.1617 37.0361 34.7497C36.6424 35.3377 35.5136 36.6634 35.1697 37.0571C34.8259 37.4509 34.482 37.4981 33.894 37.2041C33.306 36.9101 31.4081 36.288 29.1585 34.2825C27.4076 32.7206 26.2264 30.7939 25.8825 30.2032C25.5386 29.6126 25.8457 29.295 26.1424 29.001C26.4075 28.7385 26.7304 28.3132 27.0244 27.9694C27.3184 27.6255 27.4155 27.3814 27.6124 26.9876C27.8093 26.5939 27.7121 26.25 27.5625 25.956C27.4155 25.6594 26.2369 22.7614 25.746 21.5827C25.2709 20.4409 24.7852 20.5931 24.423 20.5774C24.0478 20.562 23.6724 20.555 23.2969 20.5564C22.9983 20.564 22.7045 20.6332 22.4339 20.7597C22.1634 20.8862 21.9218 21.0672 21.7245 21.2914C21.1838 21.882 19.6639 23.3047 19.6639 26.2027C19.6639 29.1007 21.7744 31.9016 22.0684 32.2954C22.3624 32.6891 26.2211 38.6347 32.1274 41.1862C33.5344 41.7926 34.6316 42.1549 35.4847 42.4279C36.8944 42.8767 38.178 42.8111 39.1939 42.6615C40.3252 42.4935 42.6772 41.2387 43.1681 39.8632C43.659 38.4877 43.659 37.3091 43.512 37.0624C43.365 36.8156 42.9686 36.666 42.3832 36.372" fill="white"/>
</svg>
